<svg xmlns="http://www.w3.org/2000/svg" width="64" height="64" viewBox="0 0 64 64"><g xmlns="http://www.w3.org/2000/svg"><g transform="matrix(1 0 0 1 6.143 15.636)"><path d="M0 16.4C4.6 25.8 15.4 32.7 25.9 32.7 36.4 32.7 47.1 25.8 51.7 16.4 47.1 7 36.4 0 25.9 0 15.4 0 4.6 7 0 16.4Z" fill="#ffbf00"/></g><g transform="matrix(1 0 0 1 18.08 17.734)"><path d="M13.9 0C21.6 0 27.8 6.4 27.8 14.3 27.8 22.1 21.6 28.5 13.9 28.5 6.2 28.5 0 22.1 0 14.3 0 6.4 6.2 0 13.9 0z"/></g><g transform="matrix(1 0 0 1 1.255 11.036)"><path d="M30.7 0C44.7 0 56.7 8.7 61.5 21 56.7 33.2 44.7 41.9 30.7 41.9 16.8 41.9 4.8 33.2 0 21 4.8 8.7 16.8 0 30.7 0ZM4.8 21C9.4 30.4 20.2 37.3 30.7 37.3 41.3 37.3 51.9 30.4 56.5 21 51.9 11.6 41.3 4.6 30.7 4.6 20.2 4.6 9.4 11.6 4.8 21Z"/></g><g transform="matrix(1 0 0 1 22.711 21.375)"><path d="M13.7 11.3C14.9 11 15.8 10.2 16 8.5 16.3 6.3 14.6 5.1 12.3 4.3L13.1 1.3 11.2 0.8 10.5 3.8C10 3.7 9.5 3.5 9 3.4L9.8 0.5 7.9 0 7.2 3C6.8 2.9 6.4 2.8 6 2.7L6 2.7 3.5 2.1 3 4.1C3 4.1 4.3 4.4 4.3 4.4 5 4.6 5.2 5.1 5.2 5.5L4.3 8.9C4.4 8.9 4.4 9 4.5 9 4.4 9 4.4 9 4.3 8.9L3.1 13.8C3 14 2.8 14.3 2.3 14.2 2.3 14.2 0.9 13.9 0.9 13.9L0 16 2.4 16.6C2.8 16.7 3.3 16.8 3.7 16.9L2.9 20 4.8 20.4 5.5 17.4C6 17.5 6.5 17.7 7 17.8L6.3 20.8 8.1 21.3 8.9 18.2C12 18.8 14.4 18.6 15.4 15.7 16.2 13.4 15.3 12.1 13.7 11.3ZM7.1 11.1C8.4 11.4 12.4 12.1 11.8 14.4 11.2 16.7 7.4 15.5 6.1 15.2L7.1 11.1ZM8.5 5.6C9.6 5.9 12.9 6.3 12.4 8.5 11.9 10.6 8.7 9.5 7.6 9.3L8.5 5.6Z" fill="#fff"/></g></g></svg>