<svg xmlns="http://www.w3.org/2000/svg" width="64" height="64" viewBox="0 0 64 64"><g xmlns="http://www.w3.org/2000/svg" transform="translate(0 0)"><rect width="64" height="64" fill="#FFF"/></g><g xmlns="http://www.w3.org/2000/svg"><g transform="matrix(1 0 0 1 1.665 3.375)"><path d="M11.5 0L49.2 0C55.5 0 60.7 5.1 60.7 11.5L60.7 45.9C60.7 52.2 55.5 57.4 49.2 57.4L11.5 57.4C5.1 57.4 0 52.2 0 45.9L0 11.5C0 5.1 5.1 0 11.5 0z" fill="#f90"/></g><g transform="matrix(1 0 0 1 9.192 18.564)"><path d="M0 14.4C4.1 22.7 13.6 28.9 22.9 28.9 32.1 28.9 41.5 22.7 45.6 14.4 41.5 6.2 32.1 0 22.9 0 13.6 0 4.1 6.2 0 14.4Z" fill="#ffbf00"/></g><g transform="matrix(1 0 0 1 19.721 20.415)"><path d="M12.3 0C19.1 0 24.6 5.6 24.6 12.6 24.6 19.5 19.1 25.2 12.3 25.2 5.5 25.2 0 19.5 0 12.6 0 5.6 5.5 0 12.3 0z"/></g><g transform="matrix(1 0 0 1 4.88 14.508)"><path d="M27.1 0C39.4 0 50 7.7 54.2 18.5 50 29.3 39.4 37 27.1 37 14.8 37 4.3 29.3 0 18.5 4.3 7.7 14.8 0 27.1 0ZM4.3 18.5C8.3 26.8 17.8 32.9 27.1 32.9 36.4 32.9 45.8 26.8 49.9 18.5 45.8 10.2 36.4 4.1 27.1 4.1 17.8 4.1 8.3 10.2 4.3 18.5Z"/></g><g transform="matrix(1 0 0 1 23.806 23.626)"><path d="M12.1 9.9C13.1 9.7 13.9 9 14.1 7.5 14.4 5.6 12.9 4.5 10.9 3.8L11.5 1.1 9.9 0.7 9.3 3.3C8.8 3.2 8.4 3.1 8 3L8.6 0.4 7 0 6.3 2.7C6 2.6 5.6 2.5 5.3 2.4L5.3 2.4 3 1.9 2.6 3.6C2.6 3.6 3.8 3.9 3.8 3.9 4.5 4 4.6 4.5 4.6 4.8L3.8 7.9C3.8 7.9 3.9 7.9 4 7.9 3.9 7.9 3.9 7.9 3.8 7.9L2.7 12.1C2.7 12.3 2.4 12.6 2 12.5 2 12.6 0.8 12.2 0.8 12.2L0 14.1 2.1 14.6C2.5 14.7 2.9 14.8 3.3 14.9L2.6 17.6 4.2 18 4.9 15.4C5.3 15.5 5.8 15.6 6.2 15.7L5.5 18.3 7.1 18.7 7.8 16.1C10.6 16.6 12.7 16.4 13.5 13.9 14.2 11.8 13.5 10.7 12.1 9.9ZM6.3 9.8C7.4 10.1 10.9 10.6 10.4 12.7 9.9 14.8 6.5 13.7 5.4 13.4L6.3 9.8ZM7.5 4.9C8.4 5.2 11.4 5.6 10.9 7.5 10.5 9.3 7.6 8.4 6.7 8.2L7.5 4.9Z" fill="#fff"/></g></g></svg>
